REM DIRINDEX 1\2\6,1\2\7,1\2\8,1\2\9,1\3\10,1\3\11,1\4\12,1\4\13,1\4\14,1\5\15,1\5\16,1\5\17
REM DIRNAME folder01,folder02,folder03,folder04,folder05,folder06,folder07,folder08,folder09,folder10,folder11,folder12,folder13,folder14,folder15,folder16,folder17
TITLE ""
FILE "1900_3_030 sec05_0482_0500.mp3" MP3
  TRACK 01 AUDIO
    TITLE "0:"
    INDEX 01 00:00:00
  TRACK 02 AUDIO
    TITLE "17:cjc020_6934"
    INDEX 01 00:00:19
  TRACK 03 AUDIO
    TITLE "0:"
    INDEX 01 00:01:40
  TRACK 04 AUDIO
    TITLE "16:cjc020_6935"
    INDEX 01 00:01:42
  TRACK 05 AUDIO
    TITLE "0:"
    INDEX 01 00:02:55
  TRACK 06 AUDIO
    TITLE "17:cjc020_6936"
    INDEX 01 00:03:39
  TRACK 07 AUDIO
    TITLE "0:"
    INDEX 01 00:04:62
  TRACK 08 AUDIO
    TITLE "16:cjc020_6937"
    INDEX 01 00:04:64
  TRACK 09 AUDIO
    TITLE "0:"
    INDEX 01 00:05:65
  TRACK 10 AUDIO
    TITLE "17:cjc020_6938"
    INDEX 01 00:06:49
  TRACK 11 AUDIO
    TITLE "0:"
    INDEX 01 00:07:66
  TRACK 12 AUDIO
    TITLE "16:cjc020_6939"
    INDEX 01 00:07:70
  TRACK 13 AUDIO
    TITLE "0:"
    INDEX 01 00:09:04
  TRACK 14 AUDIO
    TITLE "17:cjc020_6940"
    INDEX 01 00:09:63
  TRACK 15 AUDIO
    TITLE "0:"
    INDEX 01 00:11:01
  TRACK 16 AUDIO
    TITLE "16:cjc020_6941"
    INDEX 01 00:11:05
  TRACK 17 AUDIO
    TITLE "0:"
    INDEX 01 00:12:11
  TRACK 18 AUDIO
    TITLE "17:cjc020_6942"
    INDEX 01 00:12:71
  TRACK 19 AUDIO
    TITLE "0:"
    INDEX 01 00:14:17
  TRACK 20 AUDIO
    TITLE "16:cjc020_6943"
    INDEX 01 00:14:19
  TRACK 21 AUDIO
    TITLE "0:"
    INDEX 01 00:15:25
  TRACK 22 AUDIO
    TITLE "17:cjc020_6944"
    INDEX 01 00:16:08
  TRACK 23 AUDIO
    TITLE "0:"
    INDEX 01 00:17:20
  TRACK 24 AUDIO
    TITLE "16:cjc020_6945"
    INDEX 01 00:17:23
  TRACK 25 AUDIO
    TITLE "0:"
    INDEX 01 00:18:29
  TRACK 26 AUDIO
    TITLE "17:cjc020_6946"
    INDEX 01 00:19:16
  TRACK 27 AUDIO
    TITLE "0:"
    INDEX 01 00:20:26
  TRACK 28 AUDIO
    TITLE "16:cjc020_6947"
    INDEX 01 00:20:39
  TRACK 29 AUDIO
    TITLE "0:"
    INDEX 01 00:21:35
  TRACK 30 AUDIO
    TITLE "17:cjc020_6948"
    INDEX 01 00:22:19
  TRACK 31 AUDIO
    TITLE "0:"
    INDEX 01 00:24:35
  TRACK 32 AUDIO
    TITLE "16:cjc020_6949"
    INDEX 01 00:24:39
  TRACK 33 AUDIO
    TITLE "0:"
    INDEX 01 00:25:46
  TRACK 34 AUDIO
    TITLE "17:cjc020_6950"
    INDEX 01 00:26:32
  TRACK 35 AUDIO
    TITLE "0:"
    INDEX 01 00:27:65
  TRACK 36 AUDIO
    TITLE "16:cjc020_6951"
    INDEX 01 00:27:71
  TRACK 37 AUDIO
    TITLE "0:"
    INDEX 01 00:29:05
  TRACK 38 AUDIO
    TITLE "17:cjc020_6952"
    INDEX 01 00:29:66
  TRACK 39 AUDIO
    TITLE "0:"
    INDEX 01 00:30:65
  TRACK 40 AUDIO
    TITLE "16:cjc020_6953"
    INDEX 01 00:30:69
  TRACK 41 AUDIO
    TITLE "0:"
    INDEX 01 00:32:13
  TRACK 42 AUDIO
    TITLE "17:cjc020_6954"
    INDEX 01 00:32:72
  TRACK 43 AUDIO
    TITLE "0:"
    INDEX 01 00:34:06
  TRACK 44 AUDIO
    TITLE "16:cjc020_6955"
    INDEX 01 00:34:14
  TRACK 45 AUDIO
    TITLE "0:"
    INDEX 01 00:35:14
  TRACK 46 AUDIO
    TITLE "17:cjc020_6956"
    INDEX 01 00:36:01
  TRACK 47 AUDIO
    TITLE "0:"
    INDEX 01 00:37:34
  TRACK 48 AUDIO
    TITLE "16:cjc020_6957"
    INDEX 01 00:37:36
  TRACK 49 AUDIO
    TITLE "0:"
    INDEX 01 00:38:35
  TRACK 50 AUDIO
    TITLE "17:cjc020_6958"
    INDEX 01 00:39:21
  TRACK 51 AUDIO
    TITLE "0:"
    INDEX 01 00:40:44
  TRACK 52 AUDIO
    TITLE "16:cjc020_6959"
    INDEX 01 00:40:52
  TRACK 53 AUDIO
    TITLE "0:"
    INDEX 01 00:41:65
  TRACK 54 AUDIO
    TITLE "17:cjc020_6960"
    INDEX 01 00:42:53
  TRACK 55 AUDIO
    TITLE "0:"
    INDEX 01 00:43:72
  TRACK 56 AUDIO
    TITLE "16:cjc020_6961"
    INDEX 01 00:43:74
  TRACK 57 AUDIO
    TITLE "0:"
    INDEX 01 00:45:08
  TRACK 58 AUDIO
    TITLE "17:cjc020_6962"
    INDEX 01 00:45:67
  TRACK 59 AUDIO
    TITLE "0:"
    INDEX 01 00:47:17
  TRACK 60 AUDIO
    TITLE "16:cjc020_6963"
    INDEX 01 00:47:27
  TRACK 61 AUDIO
    TITLE "0:"
    INDEX 01 00:48:40
  TRACK 62 AUDIO
    TITLE "17:cjc020_6964"
    INDEX 01 00:49:25
  TRACK 63 AUDIO
    TITLE "0:"
    INDEX 01 00:51:07
  TRACK 64 AUDIO
    TITLE "16:cjc020_6965"
    INDEX 01 00:51:15
  TRACK 65 AUDIO
    TITLE "0:"
    INDEX 01 00:52:16
  TRACK 66 AUDIO
    TITLE "17:cjc020_6966"
    INDEX 01 00:53:02
  TRACK 67 AUDIO
    TITLE "0:"
    INDEX 01 00:55:26
  TRACK 68 AUDIO
    TITLE "16:cjc020_6967"
    INDEX 01 00:55:30
  TRACK 69 AUDIO
    TITLE "0:"
    INDEX 01 00:56:31
  TRACK 70 AUDIO
    TITLE "17:cjc020_6968"
    INDEX 01 00:57:17
  TRACK 71 AUDIO
    TITLE "0:"
    INDEX 01 00:59:43
  TRACK 72 AUDIO
    TITLE "16:cjc020_6969"
    INDEX 01 00:59:47
  TRACK 73 AUDIO
    TITLE "0:"
    INDEX 01 01:00:60
  TRACK 74 AUDIO
    TITLE "17:cjc020_6970"
    INDEX 01 01:01:44
  TRACK 75 AUDIO
    TITLE "0:"
    INDEX 01 01:03:59
  TRACK 76 AUDIO
    TITLE "16:cjc020_6971"
    INDEX 01 01:03:63
  TRACK 77 AUDIO
    TITLE "0:"
    INDEX 01 01:04:70
